<?xml version="1.0" encoding="utf-8"?>
<!-- Generator: Adobe Illustrator 23.0.3, SVG Export Plug-In . SVG Version: 6.00 Build 0)  -->
<svg version="1.1" id="Layer_1" xmlns="http://www.w3.org/2000/svg" xmlns:xlink="http://www.w3.org/1999/xlink" x="0px" y="0px"
	 viewBox="0 0 100 100" style="enable-background:new 0 0 100 100;" xml:space="preserve">

<g>
	<path class="u-svg-color-primary" d="M82.1,64c-1.9,0-3.4-1.5-3.4-3.4V27.9c0-7.2-5.9-13-13-13H45.2c-1.9,0-3.4-1.5-3.4-3.4s1.5-3.4,3.4-3.4h20.5
		c10.9,0,19.8,8.9,19.8,19.8v32.7C85.5,62.5,84,64,82.1,64z"/>
</g>
<g>
	<path class="u-svg-color-primary" d="M70.4,91.8H45.2c-1.9,0-3.4-1.5-3.4-3.4s1.5-3.4,3.4-3.4h25.2c4.6,0,8.3-3.7,8.3-8.3c0-1.9,1.5-3.4,3.4-3.4
		s3.4,1.5,3.4,3.4C85.5,85,78.7,91.8,70.4,91.8z"/>
</g>
<g>
	<path class="u-svg-color-primary" d="M17.9,55c-1.9,0-3.4-1.5-3.4-3.4V38.1c0-9.8,8-17.9,17.9-17.9h28.9c1.9,0,3.4,1.5,3.4,3.4
		c0,1.9-1.5,3.4-3.4,3.4H32.4c-6.1,0-11.1,5-11.1,11.1v13.4C21.3,53.5,19.8,55,17.9,55z"/>
</g>
<g>
	<path class="u-svg-color-primary" d="M28.7,86.4c-1.9,0-3.4-1.5-3.4-3.4V45.3c0-7.3,6-13.3,13.3-13.3h23.5c7.3,0,13.3,5.9,13.3,13.3v19.3
		c0.1,4.2-1.5,8.1-4.5,11.1c-2.9,3-6.9,4.6-11.1,4.6h-7.4c-8.6,0-15.7-7-15.7-15.7v-10c0-6,4.9-10.9,10.9-10.9H52
		c6,0,10.9,4.9,10.9,10.9V64c0,1.9-1.5,3.4-3.4,3.4s-3.4-1.5-3.4-3.4v-9.3c0-2.3-1.9-4.1-4.1-4.1h-4.4c-2.3,0-4.1,1.9-4.1,4.1v10
		c0,4.9,4,8.9,8.9,8.9h7.4c2.4,0,4.6-0.9,6.3-2.6c1.7-1.7,2.6-4,2.5-6.4V45.3c0-3.6-2.9-6.5-6.5-6.5H38.6c-3.6,0-6.5,2.9-6.5,6.5V83
		C32.1,84.9,30.6,86.4,28.7,86.4z"/>
</g>
</svg>
