<?xml version="1.0" encoding="utf-8"?>
<!-- Generator: Adobe Illustrator 23.0.3, SVG Export Plug-In . SVG Version: 6.00 Build 0)  -->
<svg version="1.1" id="Layer_1" xmlns="http://www.w3.org/2000/svg" xmlns:xlink="http://www.w3.org/1999/xlink" x="0px" y="0px"
	 viewBox="0 0 100 100" style="enable-background:new 0 0 100 100;" xml:space="preserve">
<g>
	<g>
		<path class="u-svg-color-secondary" d="M94,13.4v76.2H12.2l49.2-76.2L94,13.4 M100,7.5H58.2l-57,88.1H100V7.5L100,7.5z"/>
	</g>
	<g>
		<path class="u-svg-color-raspberry" d="M23.9,83.2l35.3-54.5c3.4-3.4,6.7-2.1,9.9-0.2C73,30.8,76.4,27,80,27.1c2.5,0.1,5.4,1.8,7.6,1.6v54.5H23.9z"
			/>
	</g>
	<g>
		<rect x="5.1" y="68.9" transform="matrix(0.5464 -0.8375 0.8375 0.5464 -54.4705 44.1225)" class="u-svg-color-secondary" width="16.8" height="7"/>
	</g>
	<g>
		
			<rect x="17.1" y="50.4" transform="matrix(0.5422 -0.8402 0.8402 0.5422 -33.5965 46.0367)" class="u-svg-color-secondary" width="16.8" height="7"/>
	</g>
</g>
</svg>
