<?xml version="1.0" encoding="utf-8"?>
<!-- Generator: Adobe Illustrator 23.0.3, SVG Export Plug-In . SVG Version: 6.00 Build 0)  -->
<svg version="1.1" id="Layer_1" xmlns="http://www.w3.org/2000/svg" xmlns:xlink="http://www.w3.org/1999/xlink" x="0px" y="0px"
	 viewBox="0 0 100 100" style="enable-background:new 0 0 100 100;" xml:space="preserve">
<g>
	<g>
		<path class="u-svg-color-secondary" d="M93,68.9H77.7v-4.3h11V20.1c0-1-0.8-1.8-1.8-1.8H22.8c-0.5,0-0.9,0.2-1.2,0.5l-9.7,9.7
			c-0.3,0.3-0.5,0.8-0.5,1.2v34.8h9.8v4.3H7v-39c0-1.6,0.6-3.2,1.8-4.3l9.7-9.7c1.2-1.2,2.7-1.8,4.3-1.8h64.1c3.4,0,6.1,2.7,6.1,6.1
			C93,20.1,93,68.9,93,68.9z"/>
	</g>
	<g>
		<circle class="u-svg-color-secondary" cx="81.8" cy="25" r="2.5"/>
	</g>
	<g>
		<circle class="u-svg-color-secondary" cx="81.8" cy="58.6" r="2.5"/>
	</g>
	<g>
		<circle class="u-svg-color-secondary" cx="17.7" cy="58.6" r="2.5"/>
	</g>
	<g>
		<g>
			<path class="u-svg-color-primary" d="M31.5,35.2c-3.4,0-6.2-2.8-6.2-6.2s2.8-6.2,6.2-6.2s6.2,2.8,6.2,6.2S35,35.2,31.5,35.2z M31.5,27.2
				c-1,0-1.9,0.8-1.9,1.9s0.8,1.9,1.9,1.9c1,0,1.9-0.8,1.9-1.9S32.6,27.2,31.5,27.2z"/>
		</g>
		<g>
			<path class="u-svg-color-primary" d="M64.1,36.2c-3.4,0-6.2-2.8-6.2-6.2s2.8-6.2,6.2-6.2s6.2,2.8,6.2,6.2S67.5,36.2,64.1,36.2z M64.1,28.2
				c-1,0-1.9,0.8-1.9,1.9S63,32,64.1,32c1,0,1.9-0.8,1.9-1.9S65.1,28.2,64.1,28.2z"/>
		</g>
		<g>
			<path class="u-svg-color-primary" d="M76.9,48.8c-3.4,0-6.2-2.8-6.2-6.2s2.8-6.2,6.2-6.2c3.4,0,6.2,2.8,6.2,6.2S80.3,48.8,76.9,48.8z M76.9,40.7
				c-1,0-1.9,0.8-1.9,1.9c0,1,0.8,1.9,1.9,1.9c1,0,1.9-0.8,1.9-1.9C78.8,41.6,77.9,40.7,76.9,40.7z"/>
		</g>
		<g>
			<path class="u-svg-color-primary" d="M64.1,59.6c-3.4,0-6.2-2.8-6.2-6.2s2.8-6.2,6.2-6.2s6.2,2.8,6.2,6.2S67.5,59.6,64.1,59.6z M64.1,51.5
				c-1,0-1.9,0.8-1.9,1.9s0.8,1.9,1.9,1.9c1,0,1.9-0.8,1.9-1.9S65.1,51.5,64.1,51.5z"/>
		</g>
		<g>
			<path class="u-svg-color-primary" d="M31.5,51.7c-3.4,0-6.2-2.8-6.2-6.2s2.8-6.2,6.2-6.2s6.2,2.8,6.2,6.2S35,51.7,31.5,51.7z M31.5,43.7
				c-1,0-1.9,0.8-1.9,1.9c0,1,0.8,1.9,1.9,1.9c1,0,1.9-0.8,1.9-1.9S32.6,43.7,31.5,43.7z"/>
		</g>
		<g>
			<polygon class="u-svg-color-primary" points="72.9,45.1 60.2,45.1 44.9,31.2 34.9,31.2 34.9,26.9 46.6,26.9 61.9,40.8 72.9,40.8 			"/>
		</g>
		<g>
			<polygon class="u-svg-color-primary" points="60.1,55.6 44.5,55.6 33,50.9 34.6,46.9 45.3,51.2 60.1,51.2 			"/>
		</g>
	</g>
	<g>
		<polygon class="u-svg-color-secondary" points="84.9,86 14.2,86 14.2,66.8 18.5,66.8 18.5,81.7 80.6,81.7 80.6,66.8 84.9,66.8 		"/>
	</g>
	<g>
		<polygon class="u-svg-color-secondary" points="82.8,86 13.9,86 13.9,66.8 18.2,66.8 18.2,81.7 82.8,81.7 		"/>
	</g>
	<g>
		<path class="u-svg-color-secondary" d="M39.3,78.1H27.5V64.6h11.9v13.5H39.3z M31.8,73.8H35v-4.9h-3.2V73.8z"/>
	</g>
	<g>
		<path class="u-svg-color-secondary" d="M55.6,78.1H43.7V64.6h11.9V78.1z M48,73.8h3.2v-4.9H48V73.8z"/>
	</g>
	<g>
		<path class="u-svg-color-secondary" d="M71.8,78.1H60V64.6h11.9L71.8,78.1L71.8,78.1z M64.3,73.8h3.2v-4.9h-3.2V73.8z"/>
	</g>
</g>
</svg>
