<?xml version="1.0" encoding="utf-8"?>
<!-- Generator: Adobe Illustrator 23.1.0, SVG Export Plug-In . SVG Version: 6.00 Build 0)  -->
<svg version="1.1" id="Layer_1" xmlns="http://www.w3.org/2000/svg" xmlns:xlink="http://www.w3.org/1999/xlink" x="0px" y="0px"
	 viewBox="0 0 42 42" style="enable-background:new 0 0 42 42;" xml:space="preserve">
<style type="text/css">
	.st0{fill:#222222;}
</style>
<g>
	<path class="st0" d="M41.9,40.9c-1.5-2-3.2-3.7-5.2-5.2l4.6-8.6c0.1-0.2,0.1-0.3,0.1-0.5c-0.1-0.2-0.2-0.3-0.3-0.4l-5.3-2.8
		c-0.3-0.2-0.7-0.1-0.9,0.3l-4.6,8.6c-1.7-0.6-3.5-1.1-5.3-1.4v-9.8c0-0.4-0.3-0.7-0.7-0.7h-6c-0.4,0-0.7,0.3-0.7,0.7v9.8
		c-1.9,0.2-3.8,0.7-5.6,1.4l-4.8-8.7c-0.2-0.3-0.6-0.4-0.9-0.3L1.1,26c-0.2,0.1-0.3,0.2-0.3,0.4c-0.1,0.2,0,0.4,0.1,0.5l4.7,8.6
		c-2,1.5-3.9,3.3-5.4,5.4c-0.2,0.3-0.2,0.7,0.1,0.9C0.6,42.1,1,42,1.2,41.7c0.4-0.5,0.8-1,1.3-1.5l5.6-0.9l2,0.8
		c0.1,0,0.2,0.1,0.3,0.1l4.8-0.3c0.2,0,0.5-0.2,0.6-0.4l1.3-2.7c0.1-0.2,0.1-0.5,0-0.6c-0.1-0.2-0.3-0.3-0.6-0.3l-4.6,0l-1.4-1.7
		c3.2-1.5,6.8-2.3,10.5-2.3c2.7,0,5.3,0.4,7.7,1.2l-2.7,2.6l-3.6,1c-0.3,0.1-0.6,0.4-0.5,0.8l0.4,2.1c0.1,0.4,0.4,0.6,0.8,0.5
		l3.7-0.6l1.6,1.5c0.1,0.1,0.3,0.2,0.5,0.2c0.1,0,0.3,0,0.4-0.1l3.6-2.5l5.9,0.8c0,0,0,0,0,0c0.7,0.7,1.4,1.5,2,2.4
		c0.1,0.2,0.3,0.3,0.5,0.3c0.1,0,0.3,0,0.4-0.1C42,41.6,42.1,41.2,41.9,40.9z M35.8,24.8l4.1,2.2l-4.2,7.9c-1.3-0.9-2.6-1.6-4-2.2
		L35.8,24.8z M2.4,26.8l4-2.2l4.4,7.9c-1.4,0.6-2.8,1.3-4.1,2.2L2.4,26.8z M9.3,34.9l1.7,2c0.1,0.2,0.3,0.2,0.5,0.2l3.8,0l-0.6,1.4
		l-4.3,0.3L8.4,38c-0.1,0-0.2-0.1-0.4,0L4,38.6c1.6-1.5,3.4-2.8,5.3-3.8C9.3,34.8,9.3,34.9,9.3,34.9z M19,30.5v-8.9h4.6v9
		c-0.9-0.1-1.7-0.1-2.6-0.1C20.3,30.5,19.7,30.5,19,30.5z M32.8,37.2c-0.2,0-0.3,0-0.5,0.1L29,39.6l-1.5-1.4
		C27.4,38.1,27.2,38,27,38l-3.4,0.5l-0.2-0.8l3.2-0.9c0.1,0,0.2-0.1,0.3-0.2l3.3-3.2c0.2,0.1,0.3,0.1,0.5,0.2l0.3,0.1l0,0
		c2.2,1,4.3,2.3,6.2,3.9L32.8,37.2z"/>
	<rect x="19.9" y="22.5" class="st0" width="1.1" height="1.1"/>
	<rect x="21.7" y="22.5" class="st0" width="1.1" height="1.1"/>
	<rect x="19.9" y="24.3" class="st0" width="1.1" height="1.1"/>
	<rect x="21.7" y="24.3" class="st0" width="1.1" height="1.1"/>
	<rect x="19.9" y="26.2" class="st0" width="1.1" height="1.1"/>
	<rect x="21.7" y="26.2" class="st0" width="1.1" height="1.1"/>
	<rect x="19.9" y="28" class="st0" width="1.1" height="1.1"/>
	<rect x="21.7" y="28" class="st0" width="1.1" height="1.1"/>
	<rect x="35.7" y="26.3" transform="matrix(0.4726 -0.8813 0.8813 0.4726 -4.4973 46.1476)" class="st0" width="1.1" height="1.1"/>
	<rect x="37.4" y="27.1" transform="matrix(0.4726 -0.8813 0.8813 0.4726 -4.4076 48.0511)" class="st0" width="1.1" height="1.1"/>
	<rect x="34.9" y="27.9" transform="matrix(0.4725 -0.8813 0.8813 0.4725 -6.3625 46.2365)" class="st0" width="1.1" height="1.1"/>
	<rect x="36.5" y="28.7" transform="matrix(0.4726 -0.8813 0.8813 0.4726 -6.2732 48.1391)" class="st0" width="1.1" height="1.1"/>
	<rect x="34" y="29.5" transform="matrix(0.4725 -0.8813 0.8813 0.4725 -8.2278 46.3255)" class="st0" width="1.1" height="1.1"/>
	<rect x="35.7" y="30.3" transform="matrix(0.4725 -0.8813 0.8813 0.4725 -8.138 48.2291)" class="st0" width="1.1" height="1.1"/>
	
		<rect x="33.2" y="31.1" transform="matrix(0.4725 -0.8813 0.8813 0.4725 -10.0934 46.4135)" class="st0" width="1.1" height="1.1"/>
	<rect x="34.8" y="31.9" transform="matrix(0.4725 -0.8813 0.8813 0.4725 -10.004 48.316)" class="st0" width="1.1" height="1.1"/>
	<rect x="3.8" y="26.9" transform="matrix(0.876 -0.4823 0.4823 0.876 -12.7115 5.4928)" class="st0" width="1.1" height="1.1"/>
	<rect x="5.4" y="26" transform="matrix(0.876 -0.4823 0.4823 0.876 -12.0784 6.1658)" class="st0" width="1.1" height="1.1"/>
	<rect x="4.6" y="28.5" transform="matrix(0.876 -0.4823 0.4823 0.876 -13.371 6.1133)" class="st0" width="1.1" height="1.1"/>
	<rect x="6.3" y="27.6" transform="matrix(0.876 -0.4823 0.4823 0.876 -12.7389 6.7871)" class="st0" width="1.1" height="1.1"/>
	<rect x="5.5" y="30.1" transform="matrix(0.876 -0.4823 0.4823 0.876 -14.0305 6.7337)" class="st0" width="1.1" height="1.1"/>
	<rect x="7.1" y="29.2" transform="matrix(0.876 -0.4823 0.4823 0.876 -13.3975 7.4066)" class="st0" width="1.1" height="1.1"/>
	<rect x="6.4" y="31.7" transform="matrix(0.876 -0.4823 0.4823 0.876 -14.6912 7.3552)" class="st0" width="1.1" height="1.1"/>
	<rect x="8" y="30.8" transform="matrix(0.876 -0.4823 0.4823 0.876 -14.057 8.0271)" class="st0" width="1.1" height="1.1"/>
</g>
</svg>
