<?xml version="1.0" encoding="utf-8"?>
<!-- Generator: Adobe Illustrator 23.1.0, SVG Export Plug-In . SVG Version: 6.00 Build 0)  -->
<svg version="1.1" id="Layer_1" xmlns="http://www.w3.org/2000/svg" xmlns:xlink="http://www.w3.org/1999/xlink" x="0px" y="0px"
	 viewBox="0 0 42 42" style="enable-background:new 0 0 42 42;" xml:space="preserve">

<g>
	<path class="u-svg-color-secondary" d="M32.1,14.9c-0.2-0.1-0.4-0.2-0.6-0.1c-3.7,1.1-7.3,0.6-11.2,0c-3.8-0.6-7.8-1.2-11.8,0c0,0,0,0,0,0
		c0,0-0.1,0-0.1,0c0,0-0.1,0.1-0.1,0.1c0,0,0,0-0.1,0.1c0,0-0.1,0.1-0.1,0.1c0,0,0,0,0,0.1C8,15.3,8,15.4,8,15.5v14.7v11.2
		c0,0.4,0.3,0.7,0.7,0.7s0.7-0.3,0.7-0.7V30.7c3.5-0.9,7-0.4,10.7,0.1c2.2,0.3,4.5,0.7,6.7,0.7c1.7,0,3.4-0.2,5.1-0.7
		c0.3-0.1,0.5-0.4,0.5-0.7V15.5C32.4,15.2,32.2,15,32.1,14.9z M31,29.7c-3.5,0.9-7,0.4-10.7-0.2c-2.2-0.3-4.5-0.7-6.7-0.7
		c-1.4,0-2.8,0.1-4.2,0.5V16c3.5-0.9,7-0.4,10.7,0.2c3.6,0.5,7.2,1.1,10.9,0.2V29.7z"/>
	<path class="u-svg-color-secondary" d="M20.8,17.5c-3,0-5.4,2.4-5.4,5.4s2.4,5.4,5.4,5.4c3,0,5.4-2.4,5.4-5.4S23.7,17.5,20.8,17.5z M24.9,22.2h-1.6
		c-0.1-1.1-0.3-2.2-0.6-3.1C23.8,19.7,24.7,20.9,24.9,22.2z M20.8,27c-0.4,0-1.1-1.3-1.3-3.6H22C21.9,25.6,21.2,27,20.8,27z
		 M19.5,22.2c0.1-2.2,0.8-3.6,1.3-3.6c0.4,0,1.1,1.3,1.3,3.6H19.5z M18.9,19.1c-0.4,0.9-0.6,2-0.6,3.1h-1.6
		C16.9,20.9,17.7,19.7,18.9,19.1z M16.7,23.4h1.6c0.1,1.1,0.3,2.2,0.6,3.1C17.7,25.9,16.9,24.8,16.7,23.4z M22.6,26.5
		c0.4-0.9,0.6-2,0.6-3.1h1.6C24.7,24.8,23.8,25.9,22.6,26.5z"/>
</g>
</svg>
