<?xml version="1.0" encoding="utf-8"?>
<!-- Generator: Adobe Illustrator 23.0.3, SVG Export Plug-In . SVG Version: 6.00 Build 0)  -->
<svg version="1.1" id="Layer_1" xmlns="http://www.w3.org/2000/svg" xmlns:xlink="http://www.w3.org/1999/xlink" x="0px" y="0px"
	 viewBox="0 0 100 100" style="enable-background:new 0 0 100 100;" xml:space="preserve">
<g>
	<path class="u-svg-color-secondary" d="M31.7,65L50,90l18.3-25l7.4-10.1c3.1-4.3,4.9-9.5,4.8-14.8c0-1.9-0.2-3.9-0.7-5.9C77.1,21,65.7,11.1,52.3,10.1
		C34.4,8.8,19.5,22.9,19.5,40.5v0c0,5,1.6,9.9,4.6,14L31.7,65z"/>
	<path class="u-svg-color-primary" d="M31.7,35.3c0,5.1-4.1,9.2-9.2,9.2c-0.3,0-0.6,0-0.8,0c-6.1-0.6-9.2-7.8-5.8-12.9c1.5-2.3,3.1-4.7,3.1-4.7
		l7.7-11.5c2.2-3.3,6-5.3,10-5.3H40L31.7,35.3z"/>
	<path class="u-svg-color-white" d="M68.3,35.3c0,5.1,4.1,9.2,9.2,9.2c0.3,0,0.6,0,0.8,0c6.1-0.6,9.2-7.8,5.8-12.9c-1.5-2.3-3.1-4.7-3.1-4.7
		l-7.7-11.5c-2.2-3.3-6-5.3-10-5.3H60L68.3,35.3z"/>
	<circle class="u-svg-color-white" cx="50" cy="40.1" r="15.3"/>
	<path class="u-svg-color-primary" d="M60,10H50v25.2h0c0,0,0,0,0,0c0,5.1,4.1,9.2,9.2,9.2c5.1,0,9.2-4.1,9.2-9.2L60,10z"/>
	<path class="u-svg-color-white" d="M40,10h10v25.2h0c0,0,0,0,0,0c0,5.1-4.1,9.2-9.2,9.2c-5.1,0-9.2-4.1-9.2-9.2L40,10z"/>
</g>
</svg>
