<?xml version="1.0" encoding="utf-8"?>
<!-- Generator: Adobe Illustrator 23.0.3, SVG Export Plug-In . SVG Version: 6.00 Build 0)  -->
<svg version="1.1" id="Layer_1" xmlns="http://www.w3.org/2000/svg" xmlns:xlink="http://www.w3.org/1999/xlink" x="0px" y="0px"
	 viewBox="0 0 100 100" style="enable-background:new 0 0 100 100;" xml:space="preserve">
<g>
	<path class="u-svg-color-secondary" d="M18.3,58.7H9.6c-1.5,0-2.7-1.2-2.7-2.7V39.9c0-1.5,1.2-2.7,2.7-2.7h8.7c1.5,0,2.7,1.2,2.7,2.7v16.2
		C21,57.6,19.8,58.7,18.3,58.7z"/>
	<path class="u-svg-color-secondary" d="M37.1,58.8h-8.7c-1.5,0-2.7-1.2-2.7-2.7V30.8c0-1.5,1.2-2.7,2.7-2.7h8.7c1.5,0,2.7,1.2,2.7,2.7v25.4
		C39.8,57.7,38.6,58.8,37.1,58.8z"/>
	<path class="u-svg-color-secondary" d="M50.2,63.5H1.8c-1,0-1.7,0.8-1.7,1.7v5c0,1,0.8,1.7,1.7,1.7h53.9C53.3,69.6,51.5,66.7,50.2,63.5z"/>
	<path class="u-svg-color-secondary" d="M58.5,33.6V22.2c0-1-0.8-1.7-1.7-1.7H46.2c-1,0-1.7,0.8-1.7,1.7v36.5h4.4c-0.3-1.5-0.4-3.1-0.4-4.7
		C48.4,45.7,52.4,38.3,58.5,33.6z"/>
	<g>
		<path class="u-svg-color-secondary" d="M74.2,54V33c-14.9,0-26.2,15.4-18.7,31.2c1.8,3.7,4.8,6.7,8.5,8.5c15.8,7.5,31.2-3.8,31.2-18.7L74.2,54z"/>
	</g>
	<path class="u-svg-color-primary" d="M100,49.3c0-11.6-9.4-21-21-21v21H100z"/>
</g>
</svg>
