<?xml version="1.0" encoding="utf-8"?>
<!-- Generator: Adobe Illustrator 23.0.3, SVG Export Plug-In . SVG Version: 6.00 Build 0)  -->
<svg version="1.1" id="Layer_1" xmlns="http://www.w3.org/2000/svg" xmlns:xlink="http://www.w3.org/1999/xlink" x="0px" y="0px"
	 viewBox="0 0 100 100" style="enable-background:new 0 0 100 100;" xml:space="preserve">
<path class="u-svg-color-white" d="M54.2,10.7h-7.1c-20.2,0-36.7,16.4-36.7,36.7v7.1c0,20.2,16.4,36.7,36.7,36.7h7.1c20.2,0,36.7-16.4,36.7-36.7
	v-7.1C90.9,27.2,74.4,10.7,54.2,10.7z M66.1,61.8c0.4-3.4,0.6-7,0.6-10.8c0-4.8-0.3-9.4-0.9-13.7c13.9,2.2,22.5,7.4,22.5,12.3
	C88.3,54.4,79.8,59.5,66.1,61.8z M64.1,51c0,4-0.2,7.7-0.6,11.2c-3.9,0.5-8.2,0.8-12.8,0.8c-4.6,0-8.9-0.3-12.8-0.8
	c-0.4-3.5-0.6-7.2-0.6-11.2c0-5.1,0.4-9.8,1-14.1c3.8-0.5,8-0.8,12.4-0.8c4.5,0,8.6,0.3,12.4,0.8C63.7,41.1,64.1,45.9,64.1,51z
	 M50.6,88.6c-5,0-10.4-9.1-12.5-23.8c3.9,0.5,8.1,0.8,12.5,0.8c4.4,0,8.6-0.3,12.5-0.8C61,79.5,55.7,88.6,50.6,88.6z M35.5,37.3
	c-0.6,4.3-0.9,8.9-0.9,13.7c0,3.8,0.2,7.4,0.6,10.8C21.5,59.5,13,54.4,13,49.5C13,44.6,21.6,39.5,35.5,37.3z M50.6,33.5
	c-4.2,0-8.2,0.2-12,0.7c2.4-12.9,7.3-20.9,12-20.9s9.6,7.9,12,20.9C58.9,33.8,54.8,33.5,50.6,33.5z M44.8,13.4
	c-4,3.8-7.1,11.4-8.8,21.2c-10.4,1.6-18.7,4.8-22.7,9C15.1,27.3,28.3,14.5,44.8,13.4z M13,55.3c3.9,4.2,12.1,7.5,22.5,9.1
	c1.5,11.1,4.9,19.9,9.3,24.1C27.3,87.3,13.4,73,13,55.3z M56.5,88.5c4.4-4.2,7.8-12.9,9.3-24.1c10.4-1.6,18.5-4.9,22.5-9.1
	C87.8,73,73.9,87.3,56.5,88.5z M65.3,34.6c-1.7-9.7-4.9-17.4-8.8-21.2C72.9,14.5,86.2,27.3,88,43.6C84,39.4,75.7,36.2,65.3,34.6z"/>
</svg>
