<?xml version="1.0" encoding="utf-8"?>
<!-- Generator: Adobe Illustrator 23.1.0, SVG Export Plug-In . SVG Version: 6.00 Build 0)  -->
<svg version="1.1" id="Layer_1" xmlns="http://www.w3.org/2000/svg" xmlns:xlink="http://www.w3.org/1999/xlink" x="0px" y="0px"
	 viewBox="0 0 42 42" style="enable-background:new 0 0 42 42;" xml:space="preserve">

<g>
	<path class="u-svg-color-secondary" d="M31.4,30.3c-0.4,0-0.7,0.3-0.7,0.7v8.2H18.5V31c0-0.4-0.3-0.7-0.7-0.7s-0.7,0.3-0.7,0.7v8.2h-5.5V31
		c0-0.4-0.3-0.7-0.7-0.7s-0.7,0.3-0.7,0.7v8.9c0,0.2,0.1,0.4,0.2,0.5c0.1,0.1,0.3,0.2,0.5,0.2h20.5c0.2,0,0.4-0.1,0.5-0.2
		c0.1-0.1,0.2-0.3,0.2-0.5V31C32.1,30.6,31.8,30.3,31.4,30.3z"/>
	<path class="u-svg-color-secondary" d="M35,26.6c0-0.5-0.1-0.9-0.3-1.4l-2.6-5c-0.1-0.2-0.4-0.4-0.6-0.4H11.1c-0.2,0-0.5,0.1-0.6,0.3l-3,4.9l0,0
		c-0.3,0.5-0.4,1-0.4,1.6c0,0.7,0.2,1.4,0.8,1.9c0.6,0.6,1.5,1,2.4,1c1.1,0,2.1-0.5,2.7-1.3c0.6,0.8,1.6,1.3,2.7,1.3
		c1.1,0,2.1-0.5,2.7-1.3c0.6,0.8,1.6,1.3,2.7,1.3c1.1,0,2.1-0.5,2.7-1.3c0.6,0.8,1.6,1.3,2.7,1.3c1.1,0,2.1-0.5,2.7-1.3
		c0.6,0.8,1.6,1.3,2.7,1.3c1.3,0,2.3-0.7,2.9-1.7l0,0C34.8,27.5,35,27.1,35,26.6z M33.4,27.3L33.4,27.3c-0.3,0.6-1,1-1.7,1
		c-1.1,0-2-0.9-2-2c0-0.4-0.3-0.7-0.7-0.7h0c-0.4,0-0.7,0.3-0.7,0.7c0,1.1-0.9,2-2,2c-1.1,0-2-0.9-2-2c0-0.4-0.3-0.7-0.7-0.7h0
		c-0.4,0-0.7,0.3-0.7,0.7c0,1.1-0.9,2-2,2c-1.1,0-2-0.9-2-2c0,0,0,0,0,0c0,0,0,0,0,0c0,0,0,0,0,0h0c0-0.2-0.1-0.4-0.2-0.5
		c-0.1-0.1-0.3-0.2-0.5-0.2h0c-0.2,0-0.4,0.1-0.5,0.2c-0.1,0.1-0.2,0.3-0.2,0.5h0c0,0,0,0,0,0c0,0,0,0,0,0c0,0,0,0,0,0
		c0,1.1-0.9,2-2,2c-1.1,0-2-0.9-2-2c0-0.4-0.3-0.7-0.7-0.7h0c-0.4,0-0.7,0.3-0.7,0.7c0,1.1-0.9,2-2,2c-0.6,0-1.1-0.2-1.4-0.6
		c-0.2-0.3-0.4-0.6-0.4-1c0-0.3,0.1-0.6,0.2-0.8l0,0l2.8-4.6H31l2.4,4.7l0,0c0.1,0.2,0.2,0.5,0.2,0.7C33.6,26.9,33.5,27.1,33.4,27.3
		z"/>
	<polygon class="u-svg-color-secondary" points="34.6,25.3 34.6,25.3 34.6,25.3 	"/>
	<path class="u-svg-color-secondary" d="M16.2,35.6v-1.1c0-0.3-0.2-0.5-0.5-0.5s-0.5,0.2-0.5,0.5v1.1c0,0.3,0.2,0.5,0.5,0.5S16.2,35.8,16.2,35.6z"/>
	<path class="u-svg-color-secondary" d="M27.9,33.6l-1.6,1.6c-0.2,0.2-0.2,0.5,0,0.7c0.2,0.2,0.5,0.2,0.7,0l1.6-1.6c0.2-0.2,0.2-0.5,0-0.7
		C28.4,33.4,28.1,33.4,27.9,33.6z"/>
	<path class="u-svg-color-secondary" d="M27.6,31.5l-4,4c-0.2,0.2-0.2,0.5,0,0.7c0.2,0.2,0.5,0.2,0.7,0l4-4c0.2-0.2,0.2-0.5,0-0.7
		C28.1,31.3,27.7,31.3,27.6,31.5z"/>
</g>
</svg>
