<?xml version="1.0" encoding="utf-8"?>
<!-- Generator: Adobe Illustrator 23.0.3, SVG Export Plug-In . SVG Version: 6.00 Build 0)  -->
<svg version="1.1" id="Layer_1" xmlns="http://www.w3.org/2000/svg" xmlns:xlink="http://www.w3.org/1999/xlink" x="0px" y="0px"
	 viewBox="0 0 100 100" style="enable-background:new 0 0 100 100;" xml:space="preserve">
<style type="text/css">
	.st0-profilr-pic{fill:#CCCCCB;}
</style>
<g>
	<g>
		<path class="st0-profilr-pic" d="M50,52.9c-12.9,0-23.4-10.5-23.4-23.4C26.6,16.7,37.1,6.2,50,6.2s23.4,10.5,23.4,23.4
			C73.4,42.5,62.9,52.9,50,52.9z M50,11.8c-9.8,0-17.8,8-17.8,17.8s8,17.8,17.8,17.8s17.8-8,17.8-17.8S59.8,11.8,50,11.8z"/>
	</g>
	<g>
		<path class="st0-profilr-pic" d="M96.2,99.1H3.8c-1.5,0-2.8-1.2-2.8-2.8c0-27,22-49,49-49c27,0,49,22,49,49C99,97.9,97.7,99.1,96.2,99.1z
			 M6.7,93.6h86.7C91.9,70.9,73,52.9,50,52.9S8.1,70.9,6.7,93.6z"/>
	</g>
</g>
</svg>
