<?xml version="1.0" encoding="utf-8"?>
<!-- Generator: Adobe Illustrator 23.1.0, SVG Export Plug-In . SVG Version: 6.00 Build 0)  -->
<svg version="1.1" id="Layer_1" xmlns="http://www.w3.org/2000/svg" xmlns:xlink="http://www.w3.org/1999/xlink" x="0px" y="0px"
	 viewBox="0 0 42 42" style="enable-background:new 0 0 42 42;" xml:space="preserve">

<g>
	<path class="u-svg-color-secondary" d="M6.2,28.4c0.6,0.9,1.7,1.5,2.8,1.5c1.2,0,2.2-0.6,2.8-1.5c0.6,0.9,1.7,1.4,2.8,1.5c1.2,0,2.2-0.6,2.8-1.5
		c0.6,0.9,1.7,1.5,2.8,1.5c1.2,0,2.2-0.6,2.8-1.5c0.6,0.9,1.7,1.5,2.8,1.5c1.3,0,2.5-0.7,3.1-1.8c0.2-0.4,0.4-0.9,0.4-1.4
		c0-0.5-0.1-1-0.3-1.4l0,0l-2.7-5.4c-0.1-0.2-0.4-0.4-0.6-0.4H4.3c-0.2,0-0.5,0.1-0.6,0.3L0.5,25v0C0.2,25.5,0,26.1,0,26.7
		c0,0.7,0.3,1.5,0.8,2c0.6,0.7,1.6,1.1,2.6,1.1C4.6,29.8,5.6,29.2,6.2,28.4z M1.8,27.8c-0.3-0.3-0.4-0.7-0.4-1.1
		c0-0.3,0.1-0.6,0.3-0.9v0l3-4.9h20.8l2.5,5c0.1,0.3,0.2,0.5,0.2,0.8c0,0.3-0.1,0.5-0.2,0.7c-0.4,0.6-1.1,1.1-1.9,1.1
		c-1.2,0-2.1-1-2.1-2.1c0-0.4-0.3-0.7-0.7-0.7h0c-0.4,0-0.7,0.3-0.7,0.7c0,1.2-1,2.1-2.1,2.1c-1.2,0-2.1-1-2.1-2.1
		c0-0.4-0.3-0.7-0.7-0.7h0c-0.4,0-0.7,0.3-0.7,0.7c0,1.2-1,2.1-2.1,2.1c-1.2,0-2.1-1-2.1-2.1h0c0-0.2-0.1-0.4-0.2-0.5
		c-0.1-0.1-0.3-0.2-0.5-0.2h0c-0.2,0-0.4,0.1-0.5,0.2c-0.1,0.1-0.2,0.3-0.2,0.5h0c0,1.2-1,2.1-2.1,2.1c-1.2,0-2.1-1-2.1-2.1
		c0-0.4-0.3-0.7-0.7-0.7h0c-0.4,0-0.7,0.3-0.7,0.7c0,1.2-1,2.1-2.1,2.1C2.8,28.4,2.2,28.2,1.8,27.8L1.8,27.8z"/>
	<polygon class="u-svg-color-secondary" points="0.8,28.7 0.8,28.7 0.8,28.7 	"/>
	<path class="u-svg-color-secondary" d="M8.6,35v1.2c0,0.3,0.2,0.5,0.5,0.5s0.5-0.2,0.5-0.5V35c0-0.3-0.2-0.5-0.5-0.5S8.6,34.7,8.6,35z"/>
	<path class="u-svg-color-secondary" d="M21.1,36.6l1.7-1.7c0.2-0.2,0.2-0.5,0-0.7c-0.2-0.2-0.5-0.2-0.7,0l-1.7,1.7c-0.2,0.2-0.2,0.5,0,0.7
		C20.6,36.8,20.9,36.8,21.1,36.6z"/>
	<path class="u-svg-color-secondary" d="M22.5,31.8c-0.2-0.2-0.5-0.2-0.7,0l-4.3,4.3c-0.2,0.2-0.2,0.5,0,0.7c0.2,0.2,0.5,0.2,0.7,0l4.3-4.3
		C22.7,32.3,22.7,32,22.5,31.8z"/>
	<path class="u-svg-color-secondary" d="M39.2,31.8c-0.3,0-0.6,0.3-0.6,0.6v3.9h-8.7v-4c0-0.3-0.3-0.6-0.6-0.6s-0.6,0.3-0.6,0.6v4h-2v-5
		c0-0.4-0.3-0.7-0.7-0.7s-0.7,0.3-0.7,0.7v8.8H12.1v-8.8c0-0.4-0.3-0.7-0.7-0.7s-0.7,0.3-0.7,0.7v8.8H4.8v-8.8
		c0-0.4-0.3-0.7-0.7-0.7s-0.7,0.3-0.7,0.7v9.5c0,0.2,0.1,0.4,0.2,0.5c0.1,0.1,0.3,0.2,0.5,0.2h21.8c0.2,0,0.4-0.1,0.5-0.2
		c0.1-0.1,0.2-0.3,0.2-0.5v-3.3h12.5c0.2,0,0.3-0.1,0.4-0.2c0.1-0.1,0.2-0.3,0.2-0.4v-4.5C39.8,32.1,39.5,31.8,39.2,31.8z"/>
	<path class="u-svg-color-secondary" d="M41.7,27.1l-2-4c-0.1-0.2-0.3-0.3-0.5-0.3h-8.9c-0.3,0-0.6,0.3-0.6,0.6S30,24,30.3,24h8.5l1.9,3.7l0,0
		c0.1,0.2,0.1,0.4,0.1,0.6c0,0.2,0,0.3-0.1,0.5c-0.3,0.5-0.8,0.8-1.3,0.8c-0.8,0-1.5-0.7-1.5-1.5c0-0.3-0.3-0.6-0.6-0.6h0
		c-0.3,0-0.6,0.3-0.6,0.6c0,0.8-0.7,1.5-1.5,1.5c-0.8,0-1.5-0.7-1.5-1.5c0-0.3-0.3-0.6-0.6-0.6h0c-0.3,0-0.6,0.3-0.6,0.6
		c0,0.8-0.7,1.5-1.5,1.5c-0.2,0-0.3,0-0.5-0.1c-0.3-0.1-0.7,0.1-0.8,0.4c-0.1,0.3,0.1,0.7,0.4,0.8c0.3,0.1,0.5,0.1,0.8,0.1
		c0.9,0,1.6-0.4,2.1-1c0.5,0.6,1.3,1,2.1,1c0.9,0,1.6-0.4,2.1-1c0.5,0.6,1.3,1,2.1,1c1,0,1.9-0.6,2.4-1.4l0,0
		c0.2-0.3,0.3-0.7,0.3-1.1C42,27.9,41.9,27.5,41.7,27.1z"/>
	<polygon class="u-svg-color-secondary" points="41.7,27.1 41.7,27.1 41.7,27.1 	"/>
</g>
</svg>
