<?xml version="1.0" encoding="utf-8"?>
<!-- Generator: Adobe Illustrator 23.0.3, SVG Export Plug-In . SVG Version: 6.00 Build 0)  -->
<svg version="1.1" id="Layer_1" xmlns="http://www.w3.org/2000/svg" xmlns:xlink="http://www.w3.org/1999/xlink" x="0px" y="0px"
	 viewBox="0 0 100 100" style="enable-background:new 0 0 100 100;" xml:space="preserve">

<g>
	<g>
		<path class="u-svg-color-primary" d="M87.4,47.6H25.7c-6.9,0-12.6-5.6-12.6-12.6V24.5c0-6.9,5.6-12.6,12.6-12.6h61.7c6.9,0,12.6,5.6,12.6,12.6V35
			C100,42,94.4,47.6,87.4,47.6z"/>
	</g>
	<g>
		<path class="u-svg-color-secondary" d="M59.1,89.2H54V64.7c0-1.6-1.3-2.9-2.9-2.9H8c-4.4,0-8-3.6-8-8V35.2c0-4.4,3.6-8,8-8h5.1v5.1H8
			c-1.6,0-2.9,1.3-2.9,2.9v18.6c0,1.6,1.3,2.9,2.9,2.9h43.1c4.4,0,8,3.6,8,8V89.2z"/>
	</g>
</g>
</svg>
