<?xml version="1.0" encoding="utf-8"?>
<!-- Generator: Adobe Illustrator 23.0.3, SVG Export Plug-In . SVG Version: 6.00 Build 0)  -->
<svg version="1.1" id="Layer_1" xmlns="http://www.w3.org/2000/svg" xmlns:xlink="http://www.w3.org/1999/xlink" x="0px" y="0px"
	 viewBox="0 0 66.9 35.9" style="enable-background:new 0 0 66.9 35.9;" xml:space="preserve">
<style type="text/css">
	.pmc-logo-st0{fill:#C3C6C7;}
	.pmc-logo-st1{fill:#2A8EC1;}
</style>
<path class="pmc-logo-st0" d="M58,4.4c-0.2-0.1-0.3-0.1-0.5-0.2l-1.2,3.2c0.1,0,0.3,0.1,0.4,0.1c5.5,2.2,8.2,8.4,6,13.9s-8.4,8.2-13.9,6
	s-8.2-8.4-6-13.9c1-2.6,3-4.6,5.5-5.8l0.1-0.1l-1.3-3.1l-0.2,0.1c-3.3,1.6-5.9,4.3-7.2,7.7c-2.9,7.2,0.7,15.4,7.9,18.3
	s15.4-0.7,18.3-7.9C68.8,15.4,65.2,7.2,58,4.4z"/>
<path class="pmc-logo-st1" d="M15.6,14.4c-0.4-1-1-1.8-1.7-2.6c-0.7-0.7-1.6-1.3-2.6-1.7s-2-0.7-3.2-0.7S6,9.6,5,10s-1.9,1-2.6,1.7
	s-1.3,1.6-1.7,2.6S0,16.4,0,17.5v18.3h3.9V24.5c0.5,0.3,1,0.5,1.5,0.7c0.8,0.3,1.7,0.5,2.7,0.5c1.1,0,2.2-0.2,3.2-0.7
	c1-0.4,1.8-1,2.6-1.7c0.7-0.7,1.3-1.6,1.7-2.6s0.7-2,0.7-3.2C16.3,16.4,16,15.3,15.6,14.4z M12.3,17.5c0,0.6-0.1,1.1-0.3,1.6
	s-0.5,1-0.9,1.3c-0.4,0.4-0.8,0.7-1.3,0.9c-1,0.4-2.2,0.4-3.2,0c-0.5-0.2-1-0.5-1.3-0.9c-0.4-0.4-0.7-0.8-0.9-1.3
	c-0.2-0.5-0.3-1-0.3-1.6s0.1-1.1,0.3-1.6c0.2-0.5,0.5-1,0.9-1.3c0.2-0.4,0.7-0.7,1.2-0.9c0.5-0.3,1-0.4,1.6-0.4s1.1,0.1,1.6,0.3
	s1,0.5,1.3,0.9c0.4,0.4,0.7,0.8,0.9,1.3C12.2,16.4,12.3,17,12.3,17.5z"/>
<path class="pmc-logo-st1" d="M56.4,19.7l-0.3,0.4c-0.4,0.5-0.9,0.9-1.4,1.2c-1,0.5-2.4,0.6-3.5,0.1c-0.5-0.2-1-0.5-1.3-0.9
	c-0.4-0.4-0.7-0.8-0.9-1.3s-0.3-1-0.3-1.6s0.1-1.1,0.3-1.6s0.5-1,0.9-1.3c0.4-0.4,0.8-0.7,1.3-0.9c1.1-0.5,2.4-0.4,3.5,0.1
	c0.6,0.3,1,0.7,1.4,1.2l0.3,0.4l3.1-2.4l-0.3-0.4c-0.7-1-1.7-1.7-2.8-2.3s-2.3-0.8-3.6-0.8c-1.1,0-2.2,0.2-3.1,0.6
	c-1,0.4-1.9,1-2.6,1.7s-1.3,1.6-1.8,2.6c-0.4,1-0.6,2-0.6,3.1s0.2,2.2,0.6,3.2c0.4,1,1,1.8,1.8,2.6c0.7,0.7,1.6,1.3,2.6,1.7
	c1,0.4,2,0.6,3.1,0.6c1.3,0,2.5-0.3,3.6-0.9s2-1.3,2.8-2.3l0.3-0.4L56.4,19.7z"/>
<path class="pmc-logo-st1" d="M41.7,13.1c-0.6-1-1.4-1.9-2.3-2.5c-0.6-0.4-1.2-0.7-1.9-0.9c-1.3-0.4-2.8-0.4-4.2,0c-0.6,0.2-1.3,0.5-1.9,0.9
	c-0.3,0.2-0.5,0.4-0.8,0.6c-0.2,0.1-0.3,0.3-0.5,0.4c-0.1-0.1-0.1-0.1-0.2-0.2c-0.3-0.3-0.6-0.6-1-0.8c-0.3-0.2-0.6-0.4-1-0.5
	C27.6,10,27.3,9.9,27,9.8c-0.7-0.2-1.4-0.3-2.1-0.3s-1.4,0.1-2.1,0.3c-0.2,0.1-0.4,0.1-0.6,0.2h-0.1c-0.1,0-0.3,0.1-0.4,0.2h-0.1
	l0,0c-0.3,0.1-0.5,0.3-0.7,0.4c-1,0.6-1.7,1.5-2.3,2.5c-0.6,1-0.9,2.2-0.9,3.4v9.1v0.1l0,0h3.9l0,0v-9.2c0-0.4,0.1-0.8,0.3-1.2
	c0.2-0.4,0.4-0.7,0.7-1c0.3-0.3,0.6-0.5,1-0.7c0.1,0,0.2-0.1,0.3-0.1c0.3-0.1,0.6-0.1,0.9-0.1s0.6,0,0.9,0.1c0.1,0,0.2,0.1,0.3,0.1
	c0.4,0.2,0.7,0.4,1,0.7s0.5,0.6,0.7,1s0.3,0.8,0.3,1.2v9.2l0,0h2.6h1.3v-9.2c0-0.4,0.1-0.8,0.3-1.2s0.4-0.7,0.7-1s0.6-0.5,1-0.7
	c1.1-0.4,2-0.4,2.8,0c0.4,0.2,0.7,0.4,1,0.7s0.5,0.6,0.7,1s0.3,0.8,0.3,1.2v9.2h3.9v-9.2C42.5,15.3,42.3,14.1,41.7,13.1z"/>
</svg>
